<svg xmlns="http://www.w3.org/2000/svg" xmlns:xlink="http://www.w3.org/1999/xlink" width="1123" zoomAndPan="magnify" viewBox="0 0 842.25 595.499986" height="794" preserveAspectRatio="xMidYMid meet" version="1.0"><defs><g/><clipPath id="8288391650"><path d="M 0.550781 0.0195312 L 375.816406 0.0195312 L 375.816406 192.328125 L 0.550781 192.328125 Z M 0.550781 0.0195312 " clip-rule="nonzero"/></clipPath><clipPath id="3a17f7d47d"><path d="M 0.550781 0.0195312 L 138 0.0195312 L 138 192.328125 L 0.550781 192.328125 Z M 0.550781 0.0195312 " clip-rule="nonzero"/></clipPath><clipPath id="309776ec3e"><rect x="0" width="138" y="0" height="193"/></clipPath><clipPath id="6d107fbd64"><path d="M 121 0.0195312 L 268 0.0195312 L 268 192.328125 L 121 192.328125 Z M 121 0.0195312 " clip-rule="nonzero"/></clipPath><clipPath id="3c750e7c25"><rect x="0" width="147" y="0" height="193"/></clipPath><clipPath id="c262bdecd5"><path d="M 238 0.0195312 L 375.816406 0.0195312 L 375.816406 192.328125 L 238 192.328125 Z M 238 0.0195312 " clip-rule="nonzero"/></clipPath><clipPath id="f53f9e84d0"><rect x="0" width="138" y="0" height="193"/></clipPath><clipPath id="c48cac05fc"><rect x="0" width="376" y="0" height="193"/></clipPath><clipPath id="a9bf3e1ac6"><rect x="0" width="376" y="0" height="193"/></clipPath></defs><g transform="matrix(1, 0, 0, 1, 233, 176)"><g clip-path="url(#a9bf3e1ac6)"><g clip-path="url(#8288391650)"><g><g clip-path="url(#c48cac05fc)"><g clip-path="url(#3a17f7d47d)"><g><g clip-path="url(#309776ec3e)"><g fill="#ffffff" fill-opacity="1"><g transform="translate(0.700583, 151.827213)"><g><path d="M 9.78125 -77.4375 L 9.78125 -82.71875 L 113.625 -82.71875 L 113.625 -55.15625 L 37.15625 -55.15625 L 37.15625 0 L 9.78125 0 Z M 125.15625 -101.6875 L 9.78125 -101.6875 L 9.78125 -129.265625 L 125.15625 -129.265625 Z M 125.15625 -101.6875 "/></g></g></g></g></g></g><g clip-path="url(#6d107fbd64)"><g transform="matrix(1, 0, 0, 1, 121, 0)"><g clip-path="url(#3c750e7c25)"><g fill="#ffffff" fill-opacity="1"><g transform="translate(0.183784, 151.827213)"><g><path d="M 130.046875 -7.828125 L 134.75 0 L 102.671875 0 L 101.109375 -2.546875 L 67.859375 -56.90625 C 67.078125 -56.78125 66.226562 -56.648438 65.3125 -56.515625 C 64.925781 -56.390625 64.601562 -56.328125 64.34375 -56.328125 C 64.207031 -56.328125 64.078125 -56.328125 63.953125 -56.328125 L 63.75 -56.328125 C 63.226562 -56.191406 62.835938 -56.125 62.578125 -56.125 C 62.453125 -56.125 62.257812 -56.0625 62 -55.9375 C 61.476562 -55.9375 61.082031 -55.9375 60.8125 -55.9375 C 60.289062 -55.800781 59.769531 -55.734375 59.25 -55.734375 L 58.859375 -55.734375 C 58.597656 -55.734375 58.207031 -55.671875 57.6875 -55.546875 C 57.425781 -55.546875 57.296875 -55.546875 57.296875 -55.546875 C 57.035156 -55.546875 56.644531 -55.546875 56.125 -55.546875 L 55.546875 -55.546875 C 54.890625 -55.546875 54.429688 -55.546875 54.171875 -55.546875 L 37.15625 -55.546875 L 37.15625 0 L 9.78125 0 L 9.78125 -82.921875 L 54.171875 -82.921875 C 59.253906 -82.921875 64.078125 -83.898438 68.640625 -85.859375 C 68.640625 -85.859375 68.769531 -85.921875 69.03125 -86.046875 C 73.207031 -87.867188 76.988281 -90.410156 80.375 -93.671875 C 82.851562 -96.148438 84.941406 -98.953125 86.640625 -102.078125 L 9.78125 -102.078125 L 9.78125 -129.46875 L 118.3125 -129.46875 L 118.703125 -124.765625 C 118.835938 -123.203125 118.90625 -121.703125 118.90625 -120.265625 C 118.90625 -115.441406 118.382812 -110.75 117.34375 -106.1875 C 114.601562 -93.800781 108.671875 -83.113281 99.546875 -74.125 C 98.765625 -73.332031 97.976562 -72.546875 97.1875 -71.765625 C 97.0625 -71.640625 96.898438 -71.539062 96.703125 -71.46875 C 96.503906 -71.40625 96.34375 -71.3125 96.21875 -71.1875 C 96.21875 -71.050781 96.21875 -70.984375 96.21875 -70.984375 C 95.820312 -70.722656 95.429688 -70.398438 95.046875 -70.015625 C 94.785156 -69.878906 94.523438 -69.679688 94.265625 -69.421875 C 94.128906 -69.296875 94 -69.164062 93.875 -69.03125 L 93.671875 -69.03125 C 93.410156 -68.769531 93.148438 -68.578125 92.890625 -68.453125 Z M 130.046875 -7.828125 "/></g></g></g></g></g></g><g clip-path="url(#c262bdecd5)"><g transform="matrix(1, 0, 0, 1, 238, 0)"><g clip-path="url(#f53f9e84d0)"><g fill="#ffffff" fill-opacity="1"><g transform="translate(1.027358, 151.827213)"><g><path d="M 86.046875 -78.421875 C 93.085938 -78.421875 99.640625 -76.628906 105.703125 -73.046875 C 111.765625 -69.460938 116.554688 -64.671875 120.078125 -58.671875 C 123.460938 -52.671875 125.15625 -46.148438 125.15625 -39.109375 C 125.15625 -32.203125 123.460938 -25.75 120.078125 -19.75 C 116.554688 -13.625 111.765625 -8.800781 105.703125 -5.28125 C 99.640625 -1.757812 93.085938 0 86.046875 0 L 47.125 0 C 38.519531 0 30.925781 -2.601562 24.34375 -7.8125 C 17.757812 -13.03125 13.359375 -19.550781 11.140625 -27.375 C 10.234375 -30.632812 9.78125 -33.960938 9.78125 -37.359375 L 36.5625 -37.359375 C 36.5625 -35.140625 37.242188 -33.113281 38.609375 -31.28125 C 39.984375 -29.457031 41.71875 -28.15625 43.8125 -27.375 L 86.046875 -27.375 C 89.304688 -27.375 92.078125 -28.546875 94.359375 -30.890625 C 96.640625 -33.242188 97.78125 -35.984375 97.78125 -39.109375 C 97.78125 -42.367188 96.640625 -45.140625 94.359375 -47.421875 C 92.078125 -49.703125 89.304688 -50.84375 86.046875 -50.84375 L 48.890625 -50.84375 C 43.410156 -50.84375 38.191406 -51.953125 33.234375 -54.171875 C 28.285156 -56.390625 23.988281 -59.453125 20.34375 -63.359375 C 18.25 -65.578125 16.421875 -67.988281 14.859375 -70.59375 C 11.472656 -76.59375 9.78125 -83.113281 9.78125 -90.15625 C 9.78125 -97.0625 11.472656 -103.515625 14.859375 -109.515625 C 18.378906 -115.640625 23.203125 -120.460938 29.328125 -123.984375 C 35.460938 -127.503906 41.984375 -129.265625 48.890625 -129.265625 L 88.390625 -129.265625 C 96.992188 -129.265625 104.617188 -126.65625 111.265625 -121.4375 C 117.921875 -116.226562 122.359375 -109.710938 124.578125 -101.890625 C 125.484375 -98.628906 125.9375 -95.304688 125.9375 -91.921875 L 98.953125 -91.921875 C 98.953125 -94.128906 98.300781 -96.144531 97 -97.96875 C 95.695312 -99.800781 94.003906 -101.109375 91.921875 -101.890625 L 48.890625 -101.890625 C 45.628906 -101.890625 42.859375 -100.710938 40.578125 -98.359375 C 38.296875 -96.015625 37.15625 -93.28125 37.15625 -90.15625 C 37.15625 -86.894531 38.296875 -84.125 40.578125 -81.84375 C 42.859375 -79.5625 45.628906 -78.421875 48.890625 -78.421875 Z M 86.046875 -78.421875 "/></g></g></g></g></g></g></g></g></g></g></g></svg>